<?xml version="1.0" encoding="utf-8"?>
<!-- Generator: Adobe Illustrator 19.0.0, SVG Export Plug-In . SVG Version: 6.00 Build 0)  -->
<!DOCTYPE svg PUBLIC "-//W3C//DTD SVG 1.1//EN" "http://www.w3.org/Graphics/SVG/1.1/DTD/svg11.dtd">
<svg version="1.1" id="Layer_1" xmlns="http://www.w3.org/2000/svg" xmlns:xlink="http://www.w3.org/1999/xlink" x="0px" y="0px"
	 viewBox="0 0 100 100" style="enable-background:new 0 0 100 100;" xml:space="preserve">
<style type="text/css">
	.st0{fill:#4C4A4C;}
	.st1{fill:#FFFFFF;}
	.st2{fill:none;stroke:#4C4A4C;stroke-miterlimit:10;}
</style>
<g id="XMLID_49_">
	<g id="XMLID_40_">
		<path id="XMLID_42_" class="st0" d="M84.6,98.4H72.4c0,0,3.2-60.8,3.2-65.5c-1.6-0.6,0.3-0.8,0.3-0.8l0.3-12.4h-0.8v-1l1.1-0.1
			c0,0,0-1.8,0.3-1.9c0.4-2.9,0.9-4.5,1.3-4.7s1,4.7,1,4.7h0.7v-1.5L83.3,7V6.5l0.4-0.4V4.2L84.6,2l0.9,2.2v1.9l0.4,0.4V7l3.7,8.2
			v1.5h0.7c0,0,0.6-4.9,1-4.7s0.9,1.8,1.3,4.7c0.3,0,0.3,1.9,0.3,1.9l1.1,0.1v1h-0.8l0.3,12.4c0,0,1.9,0.2,0.3,0.8
			c0,4.7,3.2,65.5,3.2,65.5H84.6z"/>
	</g>
	<path id="XMLID_41_" class="st1" d="M79.4,23.3c0,0,1.2-1.5,2.9,0c0,4,0,6.9,0,6.9h-2.9V23.3z"/>
	<path id="XMLID_45_" class="st1" d="M83.1,23.3c0,0,1.2-1.5,2.9,0c0,4,0,6.9,0,6.9h-2.9V23.3z"/>
	<path id="XMLID_46_" class="st1" d="M86.8,23.3c0,0,1.2-1.5,2.9,0c0,4,0,6.9,0,6.9h-2.9V23.3z"/>
	<circle id="XMLID_44_" class="st1" cx="84.4" cy="39" r="5.2"/>
	<line id="XMLID_47_" class="st2" x1="82.8" y1="39" x2="87.8" y2="39"/>
	<line id="XMLID_48_" class="st2" x1="84.9" y1="39.5" x2="82" y2="36.6"/>
	<circle id="XMLID_50_" class="st1" cx="84.4" cy="39" r="0.3"/>
</g>
</svg>
