<?xml version="1.0" encoding="utf-8"?>
<!-- Generator: Adobe Illustrator 18.1.1, SVG Export Plug-In . SVG Version: 6.00 Build 0)  -->
<!DOCTYPE svg PUBLIC "-//W3C//DTD SVG 1.1//EN" "http://www.w3.org/Graphics/SVG/1.1/DTD/svg11.dtd">
<svg version="1.1" id="Layer_1" xmlns="http://www.w3.org/2000/svg" xmlns:xlink="http://www.w3.org/1999/xlink" x="0px" y="0px"
	 viewBox="0 0 100 100" enable-background="new 0 0 100 100" xml:space="preserve">
<path fill="#4A4A4A" d="M90.5,76.5c0,5.5,0,11,0,16.5c-26.7,0-53.4,0-80.2,0c0-5.5,0-11,0-16.5c0.5-0.3,1-0.5,1.4-0.8
	c2.1-1.6,4.3-1.7,6.6-0.4c1.3,0.7,2.7,1.4,4,2.1c2.7,1.4,5.4,1.6,8.2,0.3c1.9-0.9,3.7-1.8,5.6-2.6c1.6-0.8,3.2-0.8,4.8,0.1
	c1.6,0.9,3.2,1.5,4.8,2.3c3.3,1.7,6.5,1.5,9.5-0.7c3.8-2.7,7.5-2.9,11.5-0.4c4.5,2.8,9,2.9,13.6,0.2C86,73.2,85.6,73.9,90.5,76.5z"
	/>
<path fill="#4A4A4A" d="M10.4,69.4c1.1-2.9,3.2-3.8,6.3-3.8c22.5,0.1,45.1,0.1,67.6,0c3.1,0,5.2,0.9,6.3,3.8c0,1.5,0,2.9,0,4.4
	c-0.9-0.4-1.7-0.8-2.6-1.2c-2.7-1.1-5.2-0.2-7.5,1.3c-4.2,2.7-8.4,3.3-12.7,0.4c-0.3-0.2-0.6-0.3-0.9-0.4c-4-2.3-8.1-2.2-11.7,0.4
	c-3.7,2.7-7.1,2.2-10.7,0c-0.2-0.1-0.4-0.2-0.6-0.3c-3.5-2.3-7-2-10.6-0.1c-6.9,3.5-6.4,3.5-12.8,0c-3.4-1.8-6.8-2.3-10.1,0
	C10.4,72.4,10.4,70.9,10.4,69.4z"/>
<path fill="#4A4A4A" d="M51.4,6.8c1.1,2.1,2.4,4.2,3.1,6.4c0.9,2.7-0.4,5.2-1.4,8.1c-0.3-2.1-0.5-3.8-0.8-5.4
	c-0.1-0.5-0.7-1-1.1-1.5c-0.4,0.5-1,1-1,1.5c-0.3,1.7-0.3,3.5-0.5,5.3c-3.3-5.3-2.6-10,1.5-14.5C51.2,6.8,51.3,6.8,51.4,6.8z"/>
<path fill="#4A4A4A" d="M83.2,64.3c-21.9,0-43.7,0-65.6,0c0-0.5-0.1-1-0.1-1.5c0-3.1,0-6.2,0-9.3c0-2.7,2.6-4.4,5.1-3.1
	c1.3,0.7,2.6,1.5,3.9,2.4c2.5,1.7,5,1.8,7.6,0.2c1.3-0.8,2.6-1.5,3.9-2.3c1.5-0.9,2.9-1,4.4,0.1c1.3,0.9,2.7,1.6,4,2.4
	c2.4,1.4,4.6,1.3,6.9-0.4c1.1-0.8,2.4-1.5,3.5-2.2c1.2-0.7,2.3-0.7,3.5-0.1c1.8,0.9,3.5,1.9,5.3,2.9c2.2,1.2,4.4,1.2,6.6-0.1
	c1.4-0.8,2.8-1.6,4.2-2.5c1.4-0.9,2.6-1,4-0.1c2.1,1.3,3.5,2.7,3.1,5.5c0,3.3-0.1,5.5-0.1,7.7C83.4,63.9,83.3,64,83.2,64.3z"/>
<path fill="#4A4A4A" d="M83.3,50c-0.5-0.3-0.8-0.5-1.1-0.7c-3-2-4.6-2-7.6,0c-0.1,0.1-0.2,0.1-0.3,0.2c-3.4,2.8-6.9,3.4-10.6,0.4
	c-0.5-0.4-1.1-0.6-1.6-0.9c-2.5-1.5-4.9-1.4-7.3,0.1c-0.8,0.5-1.7,0.9-2.4,1.6c-1.9,1.7-3.8,1.6-5.8,0.3c-1.2-0.8-2.5-1.5-3.7-2.2
	c-1.9-1.2-3.7-1.1-5.6-0.1c-1.4,0.8-2.8,1.6-4.2,2.5c-1.9,1.2-3.7,1.2-5.5-0.1c-0.7-0.5-1.5-1-2.3-1.5c-2.4-1.6-4.9-2.6-7.6-0.6
	c-1.1-4.1,1.5-7.6,5.6-7.7c2.2-0.1,4.5,0,6.9,0c0-1.9,0-3.7,0-5.5c0-1.2-0.1-2.5,0-3.7c0.1-1.3,0.8-2.3,2.2-2.3
	c1.4,0,2.1,0.9,2.1,2.3c0,2.4,0,4.7,0,7.1c0,0.6,0,1.2,0,1.9c4.8,0,9.4,0,14.3,0c0-0.6,0-1.2,0-1.8c0-4.7,0-9.3,0-14
	c0-1.8,0.7-2.6,2.1-2.7c1.4,0,2.3,0.9,2.3,2.7c0,4.5,0,9,0,13.5c0,0.7,0,1.4,0,2.3c4.3,0,8.4,0,12.8,0c0-2.9,0-5.8,0-8.6
	c0-1.2,0.3-2.2,1.6-2.6c1.4-0.4,2.7,0.7,2.8,2.5c0.1,2.9,0,5.7,0,8.9c1.7,0,3.3,0.1,4.9,0C81.2,40.7,84.1,43.8,83.3,50z"/>
<path fill="#4A4A4A" d="M31.2,29c-3.3-5.7-2.8-10.8,1.3-14.8c3.8,2.8,4.8,8.8,2,13.9c-0.3-1.7-0.5-3.4-0.9-5c-0.1-0.5-0.7-0.9-1-1.4
	c-0.4,0.5-1,0.9-1.1,1.5c-0.2,1.3-0.2,2.7-0.3,4C31.2,27.6,31.2,28.1,31.2,29z"/>
<path fill="#4A4A4A" d="M70.2,28.1c-0.2-1.4-0.3-2.7-0.5-4c-0.1-0.4-0.1-0.8-0.3-1.1c-0.3-0.5-0.7-0.9-1.1-1.3
	c-0.3,0.5-0.9,0.9-1,1.4c-0.2,1.2-0.3,2.4-0.4,3.7c0,0.6,0,1.2,0,1.9c-3.4-4.2-2.7-10.9,1.4-14.4C72.2,17.4,73.1,23.7,70.2,28.1z"/>
</svg>
