<?xml version="1.0" encoding="utf-8"?>
<!-- Generator: Adobe Illustrator 19.0.1, SVG Export Plug-In . SVG Version: 6.00 Build 0)  -->
<!DOCTYPE svg PUBLIC "-//W3C//DTD SVG 1.1//EN" "http://www.w3.org/Graphics/SVG/1.1/DTD/svg11.dtd">
<svg version="1.1" id="Layer_1" xmlns="http://www.w3.org/2000/svg" xmlns:xlink="http://www.w3.org/1999/xlink" x="0px" y="0px"
	 viewBox="-50 50 100 100" style="enable-background:new -50 50 100 100;" xml:space="preserve">
<style type="text/css">
	.st0{fill:#4A4A4A;}
	.st1{fill:none;stroke:#4A4A4A;stroke-width:2;stroke-miterlimit:10;}
</style>
<path id="XMLID_73_" class="st0" d="M-34.2,107.7c0.1-23.4,18.8-42.2,42-42.1c23.6,0.1,42.3,18.9,42.2,42.7
	c-0.1,22.9-19.4,42-42.4,41.7C-15.8,149.7-34.3,131-34.2,107.7z M7.8,144.3c19.9,0,36.5-16.5,36.6-36.4C44.5,88,27.9,71.3,7.9,71.3
	c-20.1,0-36.6,16.5-36.6,36.6C-28.6,127.7-12.1,144.3,7.8,144.3z"/>
<path id="XMLID_72_" class="st1" d="M7.8,138c-16.4,0-30.1-13.7-30.2-30.1c0-16.6,13.6-30.2,30.2-30.2c16.5,0,30.3,13.8,30.2,30.3
	C38,124.3,24.2,138,7.8,138z"/>
<path id="XMLID_65_" class="st0" d="M-4.1,122.5c0.3-4.8,0.5-9.7,0.8-14.5c0.2-2.3-0.3-4.4-1.9-6.2c-2.4-2.7-2-8.4,1.3-11.1
	c1.2-1,2.9-0.8,4.1,0.3c2.9,2.8,3.5,8.3,0.7,11.2c-1.2,1.3-1.7,3-1.6,4.7c0.3,5.4,0.6,10.8,0.9,16.1c0.1,1.3-0.6,2.3-1.7,2.5
	c-1,0.2-2.2-0.3-2.5-1.4C-4.2,123.8-4.1,123.1-4.1,122.5L-4.1,122.5z"/>
<path id="XMLID_64_" class="st0" d="M16.7,107.6c0-5.2,0-10.3,0-15.5c0-1.1,0.4-1.8,1.2-1.9c0.7-0.2,1.5,0.3,2,1.2
	c0.8,1.6,1.1,3.3,1.1,5.1c0.1,3.8,0.1,7.5,0,11.3c0,0.5-0.3,1-0.6,1.4c-0.5,0.6-0.6,1.3-0.5,2.1c0.4,3.8,0.7,7.7,1.1,11.5
	c0,0.5,0.1,1,0,1.5c-0.2,0.9-1.1,1.5-2,1.6c-0.9,0-1.8-0.6-2.1-1.5c-0.1-0.4-0.1-0.7-0.1-1.1C16.7,117.9,16.7,112.8,16.7,107.6
	L16.7,107.6z"/>
<path id="XMLID_63_" class="st0" d="M10.2,90.1c0,0.7,0.1,1.5,0.1,2.2c0,2.4,0.1,4.8,0.1,7.2c0,0.2-0.1,0.4,0,0.5
	c0.1,0.3,0.3,0.5,0.5,0.7c0.1-0.2,0.4-0.5,0.4-0.7c0-1.3,0-2.6,0-4c0-1.7-0.1-3.4,0-5.2c0-0.3,0.2-0.5,0.3-0.8
	c0.1,0.2,0.3,0.5,0.4,0.7c0.3,3.4,0.7,6.8,0.9,10.2c0.1,0.8-0.3,1.7-0.6,2.5c-0.2,0.6-0.6,1.1-1,1.6c-0.7,1-0.9,2.2-0.8,3.4
	c0.3,4.9,0.6,9.9,0.9,14.8c0.1,1.3-0.9,2.3-2.1,2.3c-1.3,0-2.2-1-2.1-2.3c0.3-4.6,0.5-9.3,0.8-13.9c0.1-1.9,0-3.6-1.2-5.1
	c-1.1-1.4-1.3-2.9-1.1-4.6C6,96.7,6.2,93.8,6.5,91c0-0.4,0.3-0.7,0.4-1.1C7,90.3,7.2,90.6,7.2,91c0,2.9,0,5.8,0,8.7
	c0,0.2,0,0.5,0.1,0.7c0.1,0.1,0.4,0.2,0.5,0.2c0.2-0.2,0.3-0.5,0.3-0.7c0.1-2.4,0.1-4.8,0.1-7.2c0-0.7,0-1.3,0-2
	c0-0.3,0.2-0.5,0.3-0.7c0.1,0.2,0.3,0.5,0.3,0.7c0,2.4,0,4.9,0,7.3c0,0.6-0.1,1.2,0,1.7c0,0.3,0.3,0.6,0.5,0.9
	c0.1-0.3,0.4-0.6,0.4-0.9c0-2.9,0-5.8,0-8.8c0-0.3,0.1-0.7,0.1-1C9.9,90.1,10.1,90.1,10.2,90.1z"/>
</svg>
