<?xml version="1.0" encoding="utf-8"?>
<!-- Generator: Adobe Illustrator 19.0.0, SVG Export Plug-In . SVG Version: 6.00 Build 0)  -->
<!DOCTYPE svg PUBLIC "-//W3C//DTD SVG 1.1//EN" "http://www.w3.org/Graphics/SVG/1.1/DTD/svg11.dtd">
<svg version="1.1" id="Layer_1" xmlns="http://www.w3.org/2000/svg" xmlns:xlink="http://www.w3.org/1999/xlink" x="0px" y="0px"
	 viewBox="436 347 100 100" style="enable-background:new 436 347 100 100;" xml:space="preserve">
<style type="text/css">
	.st0{fill:#4B4A4B;}
</style>
<path class="st0" d="M446.6,395.1c0,0-1-0.5-6.3,0c-0.7-3.7,0.2-4,5.3-5.1c0.7-1.2-0.5-2-6.5-3.3c-1.2-4.3-0.7-2.8,1.8-6.3
	c1,0.7,3.3,1,3.3,1s0,0,9,0c3.7,0,4,4.3,4,5.1c0,0.7,1.8,0.5,1.8,0.5s0,0,0.7-1.8c0.7,1.2,2,0.7,4.6,0.7c0,0-1.2-1.2-2-3
	c0.5-0.7,6-1,6-1l2.8-0.5c0,0,0.3,1.6,1.2,1.6s0,3,0,3s0,0-1.2,1c-0.2,0.7,3.5,1.2,3.5,1.2s0,0,3.4-5.5c-6.6-10.6-3.1-16.1-2.2-16.9
	c1-0.7-1-4.6-1-4.6s0-5.1,0-2.5s6.5,3.7,6.3,3.7c-0.2,0,0-7.6,0-7.6l8.6,5.1c0,0,13.1,10.8,11.6,13.6c-1.6,2.8,1.8,1.4,1.8,1.4v2.2
	l-3,1.8l3,1.2v3.3h4l2,6v5.6l2,2l-2,2.3v2.3c0,0,6.5,5.5,21.1-16.1c3.5,2.3,4,8.3,4,8.3s2.8,16.6-15.1,18.3c1.6,6-5.5-4.3,1.2,8.6
	c-2.3,2-2.3,2-2.3,2s0.5,3.3,3.3,3.5c2.8,0.2,7.8,5.3,7.6,7.6c0.2,3.7,0.2,6,0.2,6h-1.2c0,0,2,8.6-14.3,3.7c0-5.1-2.8-5.1,5.5-11.8
	c-9.8,0.2-9.8,0.2-9.8,0.2s-4.6-4-10.4-14.3c-10.6,3.5-10.6,3.5-10.6,3.5l-2,5.5l1.8,3.6H485c0,0,3.3,8.8,2.5,10.6
	c-3,2.3-1.6,1.8-5.8,2.3c-4.3,0.5-6,0.7-6,0.7s-14,4-12.8-3c1.2-7,0.2-9.1,12.3-6c1-2.3,1-2.3,1-2.3l2.3-0.7c0,0-2.3-13.5-3.5-15.3
	c3.7-2.6,2.5-7.1,12.6-8.1c-5.8-4.8-4.6-4.8-5.1-6c-9,3-17.4,5.3-19.1-3.5c0.7-3.7,0.7-3.7,0.7-3.7l-7-0.7l-1.8,2l-8.1,0.5
	L446.6,395.1z"/>
</svg>
