<?xml version="1.0" encoding="utf-8"?>
<!-- Generator: Adobe Illustrator 19.0.0, SVG Export Plug-In . SVG Version: 6.00 Build 0)  -->
<!DOCTYPE svg PUBLIC "-//W3C//DTD SVG 1.1//EN" "http://www.w3.org/Graphics/SVG/1.1/DTD/svg11.dtd">
<svg version="1.1" id="Layer_1" xmlns="http://www.w3.org/2000/svg" xmlns:xlink="http://www.w3.org/1999/xlink" x="0px" y="0px"
	 viewBox="0 0 100 100" style="enable-background:new 0 0 100 100;" xml:space="preserve">
<style type="text/css">
	.st0{fill:#4A4A4A;}
	.st1{fill:#FFFFFF;}
	.st2{fill:none;}
	.st3{fill:#575757;}
	.st4{fill-rule:evenodd;clip-rule:evenodd;fill:#4A4A4A;}
	.st5{fill-rule:evenodd;clip-rule:evenodd;fill:#FFFFFF;}
</style>
<path id="XMLID_77_" class="st0" d="M79,85.8c0,1.6-1.3,2.9-2.9,2.9l-38.8-0.1c-1.6,0-2.9-1.3-2.9-2.9l0.1-23.9
	c0-1.6,1.3-2.9,2.9-2.9L76.1,59c1.6,0,2.9,1.3,2.9,2.9L79,85.8z"/>
<circle id="XMLID_76_" class="st1" cx="37.4" cy="61.5" r="0.7"/>
<circle id="XMLID_75_" class="st1" cx="76.2" cy="61.6" r="0.7"/>
<circle id="XMLID_74_" class="st1" cx="37.3" cy="86" r="0.7"/>
<circle id="XMLID_73_" class="st1" cx="76.1" cy="86.1" r="0.7"/>
<path id="XMLID_72_" class="st0" d="M72,89.1c-0.7-2.1-1.5-4.3-2.4-5.1c-12.4-0.3-12.4-0.3-24.8-0.1c-1.2,1.3-2.1,4-2.4,5.2
	C56.7,89.1,56.7,89.1,72,89.1z"/>
<circle id="XMLID_71_" class="st1" cx="46.7" cy="86.4" r="1.4"/>
<circle id="XMLID_70_" class="st1" cx="67.9" cy="86.5" r="1.4"/>
<polyline id="XMLID_69_" class="st1" points="73.6,63 39.8,62.9 38.2,64.4 38.1,80.3 75.3,80.4 75.3,64.7 "/>
<path id="XMLID_68_" class="st2" d="M40.7,66.1l1.5-1.5L40.7,66.1z"/>
<path id="XMLID_67_" class="st0" d="M66.1,76.6c2.8,0,5-2.4,5-5.1c0-2.8-2.2-5.1-5-5.1l-18.3-0.1c-2.8,0-5,2.4-5,5.1
	c0,2.8,2.2,5.1,5,5.1L66.1,76.6z"/>
<circle id="XMLID_66_" class="st1" cx="48.3" cy="71.5" r="3"/>
<circle id="XMLID_65_" class="st0" cx="48.2" cy="71.5" r="1.8"/>
<circle id="XMLID_64_" class="st1" cx="66.2" cy="71.6" r="3"/>
<circle id="XMLID_63_" class="st0" cx="66.1" cy="71.6" r="1.8"/>
<rect id="XMLID_62_" x="52.4" y="68.9" transform="matrix(1 3.442352e-03 -3.442352e-03 1 0.247 -0.1958)" class="st1" width="9.1" height="5.4"/>
<path id="XMLID_61_" class="st3" d="M59.3,74.9"/>
<path id="XMLID_60_" class="st3" d="M59.3,69"/>
<path id="XMLID_59_" class="st3" d="M59.3,69"/>
<path id="XMLID_58_" class="st3" d="M59.3,74.4l2.3,0l0-5.4l-2.3,0c-0.3,0.9-0.6,1.6-0.6,2.6C58.7,72.7,58.9,73.5,59.3,74.4z"/>
<path id="XMLID_57_" class="st3" d="M55.1,74.4l-2.7,0l0-5.4l2.7,0c0.3,0.9,0.6,1.6,0.6,2.6C55.7,72.6,55.5,73.5,55.1,74.4z"/>
<path id="XMLID_43_" class="st4" d="M20.6,65.6c1.1-0.8,2.4-1.1,3.6-1.4c0.6-0.2,1.2-0.3,1.8-0.5c1.1-0.3,1.9,0.2,2,1.4
	c0.2,1.4,0.3,2.8,0.5,4.2c0.3,2.3,0.5,4.6,0.8,6.8c0.4,3.2,0.7,6.4,1.1,9.6c0.3,2.6,0.6,5.1,0.9,7.7c0,0.2,0.1,0.4,0.1,0.6
	c0,0.8-0.6,1.5-1.4,1.4c-1.7-0.1-3.5-0.2-5.2-0.4c-0.3,0-0.5-0.1-0.8-0.2"/>
<path id="XMLID_41_" class="st4" d="M96.7,65.4c0.9,0.1,1.3,0.8,1.6,1.6c0.7,1.7,0.9,3.5,1,5.3c0.2,3.2,0,6.4-0.4,9.6
	c-0.5,3.6-1.2,7.1-2.5,10.5c-0.5,1.4-1.2,2.8-2.2,4c-0.6,0.7-1.3,1.1-2.3,0.8c-0.7-0.2-1.5-0.2-2.3-0.3c-0.8-0.1-1.1-0.4-1.2-1.2
	c0-0.1,0-0.2,0-0.2l3.9-29.3c0.3-1,0.6-1.2,1.7-1c0.2,0,0.3,0,0.4,0L96.7,65.4z"/>
<path id="XMLID_40_" class="st4" d="M95.2,59.2C94.4,50,91,42,84.6,35.2c-0.2,0.3-0.4,0.6-0.5,0.8c-0.8,1.6-2.6,2.1-4.3,1.7
	c-0.7-0.2-1.3-0.5-1.9-0.7c-4.2-1.9-8.6-3.3-13.2-4c-3.8-0.6-7.7-0.8-11.6-0.6C46.8,32.8,40.7,34.3,35,37c-1.3,0.6-2.7,0.7-4.1,0
	c-0.7-0.3-1.1-0.9-1.4-1.5c-0.1-0.2-0.3-0.4-0.4-0.7C22.5,41.3,18.9,49.3,18,58.5l-1.3,0.2c0.2-1.7,0.3-3.3,0.5-4.9
	c0.5-3.8,1.7-7.5,3.3-11c2.7-5.7,6.5-10.5,11.4-14.3c1.8-1.4,3.8-2.7,5.9-3.8c4.2-2.2,8.7-3.7,13.4-4.4c4.3-0.6,8.5-0.5,12.7,0.3
	C73.2,22.4,81,27,87.1,34.2c2.7,3.2,4.9,6.8,6.4,10.7c1.5,3.9,2.5,7.8,2.7,12c0,0.7,0.1,1.4,0.1,2.1c0,0.1,0.1,0.3,0.2,0.4
	L95.2,59.2z"/>
<path id="XMLID_39_" class="st4" d="M94.4,65.2c0-1.8,0-3.6,0-5.4c0-0.4,0.3-0.5,0.7-0.6l1.5,0.3c0.5,0.3,0.7,0.6,0.6,1.2
	c-0.1,1.4-0.3,2.7-0.4,4.1c0,0.3-0.2,0.5-0.3,0.7L94.4,65.2z"/>
<path id="XMLID_38_" class="st4" d="M16.5,64.7c-0.1-0.3-0.3-0.5-0.3-0.8c-0.1-1.3-0.2-2.6-0.3-3.9c-0.1-0.8,0.1-1,0.8-1.4l1.3-0.2
	c0.7,0.3,0.7,0.3,0.7,1c0,1.3,0,2.5,0,3.8c0,0.4-0.1,0.8-0.1,1.3L16.5,64.7z"/>
<path id="XMLID_37_" class="st4" d="M18.5,64.5c0.9-0.1,1.9-0.4,2.1,1.1l3.4,29.3c0,0,0,0,0,0.1c-0.1,1.1-0.3,1.3-1.3,1.4
	c-0.5,0.1-1,0.1-1.6,0.2c-0.3,0-0.7,0.1-1,0.1c-0.6,0.1-1.1-0.1-1.4-0.5c-0.5-0.7-1.1-1.3-1.4-2.1c-1.3-2.4-1.9-5.1-2.5-7.7
	c-0.8-3.7-1.2-7.5-1.2-11.3c0-2.5,0.1-5,0.8-7.4c0.2-0.6,0.4-1.2,0.7-1.8c0.3-0.6,0.8-1.1,1.5-1.1L18.5,64.5z"/>
<path id="XMLID_36_" class="st5" d="M21.3,66.9c0.5-0.1,0.9-0.1,1.4-0.2c1.5-0.2,2.9-0.3,4.4-0.5c0.5-0.1,0.6-0.1,0.6-0.6
	c0-0.2,0-0.4-0.1-0.6c-0.1-0.7-0.6-1.1-1.2-0.9c-1.5,0.4-2.9,0.8-4.3,1.3C21.1,65.7,21,65.5,21.3,66.9z"/>
<path id="XMLID_35_" class="st5" d="M19.7,81l-0.9,0.1c-0.6,0.2-0.7-0.1-0.7-0.5c-0.2-2-0.4-4-0.7-6.1c-0.1-0.9-0.2-1.8-0.2-2.7
	c0-0.3,0.1-0.4,0.4-0.4c1.1-0.1,2.2-0.2,3.3-0.4c0.3,0,0.4,0.1,0.4,0.4c0.1,1.2,0.3,2.5,0.4,3.7c0.2,1.6,0.4,3.3,0.5,4.9
	c0,0.2,0,0.4,0,0.6c-0.5,0.1-1,0.1-1.6,0.2L19.7,81z"/>
<path id="XMLID_34_" class="st5" d="M90.5,81.2c0.1-0.9,0.2-1.8,0.3-2.7c0.2-1.6,0.4-3.2,0.6-4.8c0.1-0.6,0.2-1.2,0.3-1.8
	c0-0.1,0.2-0.3,0.3-0.2c1.2,0.1,2.5,0.3,3.8,0.5c0,0.5-0.1,1-0.1,1.5c-0.3,2.6-0.6,5.1-1,7.7c-0.1,0.6-0.1,0.7-0.8,0.6
	c-1-0.1-2.1-0.3-3.1-0.5C90.8,81.3,90.7,81.3,90.5,81.2z"/>
<path id="XMLID_31_" class="st4" d="M88.8,95.4c-2,0.6-4,0.5-6,0.5c-0.9,0-1.5-0.8-1.3-1.7c0.1-1,0.3-2,0.4-2.9
	c0.3-2.5,0.7-4.9,1-7.4c0.4-3.2,0.9-6.4,1.3-9.5c0.4-2.9,0.8-5.8,1.1-8.6c0.2-1.3,0.9-1.8,2.1-1.5c1.4,0.4,2.8,0.9,4.2,1.3
	c0.4,0.1,0.8,0.4,1.2,0.6c0,0,0,0,0,0L88.8,95.4z"/>
<path id="XMLID_33_" class="st5" d="M85.6,66.7c-0.1-0.2-0.2-0.4-0.2-0.5c0,0,0,0,0,0c0-1.5,0.6-1.9,1.9-1.5
	c1.3,0.4,2.6,0.8,3.8,1.3c0.1,0,0.1,0.1,0.2,0.1c0.7,0.3,0.7,0.3,0.5,1c0,0.1-0.1,0.3-0.1,0.4c-0.9-0.1-1.7-0.3-2.6-0.4
	c-0.9-0.1-1.8-0.2-2.8-0.3"/>
</svg>
