<?xml version="1.0" encoding="utf-8"?>
<!-- Generator: Adobe Illustrator 19.0.0, SVG Export Plug-In . SVG Version: 6.00 Build 0)  -->
<!DOCTYPE svg PUBLIC "-//W3C//DTD SVG 1.1//EN" "http://www.w3.org/Graphics/SVG/1.1/DTD/svg11.dtd">
<svg version="1.1" id="Layer_1" xmlns="http://www.w3.org/2000/svg" xmlns:xlink="http://www.w3.org/1999/xlink" x="0px" y="0px"
	 viewBox="-255 347 100 100" style="enable-background:new -255 347 100 100;" xml:space="preserve">
<style type="text/css">
	.st0{fill:#777777;}
</style>
<g>
	<path class="st0" d="M-204.9,358.9c13.1,0,26.3,0,39.4,0c3.9,0,6.3,2.5,6.3,7.3c0,20.8,0,41.8,0,62.6c0,4.5-2.2,7.3-6.3,7.3
		c-26.3,0-52.5,0-79,0c-3.9,0-6.3-2.5-6.3-7c0-21.1,0-42.1,0-63c0-4.1,2.3-6.8,5.9-6.8C-231.4,358.9-218.1,358.9-204.9,358.9z
		 M-239.4,366.6c11.6,12.2,23,24.3,34.4,36.4c11.4-12.1,22.8-24.2,34.4-36.4C-193.6,366.6-216.4,366.6-239.4,366.6z M-239.4,427.9
		c23,0,45.8,0,68.8,0c-8.3-8.4-16.3-16.7-24.4-25c-0.2,0-0.2,0-0.3,0c-1.9,2-3.9,4.1-5.8,6.1c-2.5,2.5-5.5,2.5-7.8,0
		c-2-2-3.9-4.1-5.9-6.3C-223.1,411.3-231.1,419.5-239.4,427.9z M-166.1,372.4c-8.1,8.6-15.9,16.9-23.9,25.3
		c8,8.3,15.9,16.3,23.9,24.6C-166.1,405.5-166.1,389-166.1,372.4z M-243.9,422.4c8.1-8.3,15.9-16.3,23.9-24.6
		c-8-8.4-15.9-16.7-23.9-25.3C-243.9,389-243.9,405.6-243.9,422.4z"/>
</g>
</svg>
