<?xml version="1.0" encoding="utf-8"?>
<!-- Generator: Adobe Illustrator 19.0.0, SVG Export Plug-In . SVG Version: 6.00 Build 0)  -->
<!DOCTYPE svg PUBLIC "-//W3C//DTD SVG 1.1//EN" "http://www.w3.org/Graphics/SVG/1.1/DTD/svg11.dtd">
<svg version="1.1" id="All_glyphs" xmlns="http://www.w3.org/2000/svg" xmlns:xlink="http://www.w3.org/1999/xlink" x="0px" y="0px"
	 viewBox="-255 347 100 100" style="enable-background:new -255 347 100 100;" xml:space="preserve">
<style type="text/css">
	.st0{fill:#777777;}
</style>
<g>
	<path class="st0" d="M-226.2,363.7c0,4.7-3.4,8.4-9.1,8.4c-5.4,0-8.8-3.8-8.8-8.4c0-4.7,3.6-8.4,9-8.4
		C-229.6,355.3-226.3,359-226.2,363.7z M-243.7,433.2v-54.3h16.9v54.3H-243.7z"/>
	<path class="st0" d="M-216.6,396.2c0-6.8-0.3-12.5-0.4-17.3h14.7l0.8,7.6h0.4c2.2-3.6,7.6-8.8,16.8-8.8c11.1,0,19.5,7.5,19.5,23.4
		v32.1h-16.9v-30.2c0-7-2.5-11.8-8.5-11.8c-4.7,0-7.5,3.2-8.7,6.3c-0.4,1.1-0.5,2.6-0.5,4.2v31.3h-16.9V396.2L-216.6,396.2z"/>
</g>
</svg>
