<?xml version="1.0" encoding="utf-8"?>
<!-- Generator: Adobe Illustrator 19.0.0, SVG Export Plug-In . SVG Version: 6.00 Build 0)  -->
<!DOCTYPE svg PUBLIC "-//W3C//DTD SVG 1.1//EN" "http://www.w3.org/Graphics/SVG/1.1/DTD/svg11.dtd">
<svg version="1.1" id="Layer_1" xmlns="http://www.w3.org/2000/svg" xmlns:xlink="http://www.w3.org/1999/xlink" x="0px" y="0px"
	 viewBox="-255 347 100 100" style="enable-background:new -255 347 100 100;" xml:space="preserve">
<style type="text/css">
	.st0{fill:#4A4A4A;}
	.st1{fill:#FFFFFF;}
</style>
<path class="st0" d="M-193.9,439.3c1.9,0,3.9,0,5.9,0c0.2-1.5,0.4-2.9,0.6-4.4c0.5-3.7,1.1-7.3,1.6-11c0.5-3.7,1-7.4,1.5-11.1
	c0.4-3.2,0.9-6.4,1.3-9.6c0.8-5.7,1.4-11.4,1-17.1c-0.4-5.7-1-11.4-2.1-17c-0.1-0.4-0.1-0.7-0.2-1.1c-0.6,0-1.2,0-1.7-0.1
	c-0.8-0.2-1.6-0.4-2.4-0.7c-0.6-0.3-1.1-0.5-1.8-0.4c-0.4,0.1-0.6-0.1-0.7-0.5c0-0.1-0.1-0.3-0.2-0.4c-0.3-0.7-0.6-1.4-1.6-1.1
	c0-0.4,0-0.7,0-1.1c0.6,0,1.3,0,1.9,0c0,0,0-0.1-0.1-0.1c0.2-0.2,0.5-0.5,0.7-0.6c2.3-1.1,4.8-1.5,7.2-2.1c0.3-0.1,0.7-0.1,1-0.2
	c0.3-0.1,0.5-0.3,0.8-0.5c-0.4-0.7-1.5-0.7-1.4-1.7c0.7,0.2,1-0.4,1.4-0.8c0.7-0.8,1.6-1.2,2.6-1.4c0.5-0.1,0.7-0.3,0.7-0.9
	c0-1.8,0-3.5,0-5.3c0.3,0,0.7,0,1,0c0,1.7,0.1,3.5,0,5.2c0,0.6,0.2,0.9,0.8,1c1.2,0.3,2.3,0.8,3,2c0.1,0.2,0.6,0.2,0.9,0.4
	c0.1,0.5-0.3,0.7-0.7,0.9c-0.2,0.2-0.4,0.4-0.6,0.6c0.3,0.2,0.5,0.5,0.8,0.5c2.3,0.7,4.7,1.3,7,1.9c0.4,0.1,0.7,0.3,1.1,0.5
	c0.2,0.1,0.4,0.4,0.6,0.5c0,0,0,0.1-0.1,0.1c0.6,0,1.2,0,1.9,0c0,0.4,0,0.7,0,1.1c-0.8-0.2-0.9,0.4-1,0.9c-0.3,0.9-0.8,1.3-1.8,1.1
	c-0.4,0-0.9,0.1-1.2,0.3c-1.2,0.8-2.6,0.9-4,0.9c-0.5,0-0.6,0.2-0.7,0.6c-1.3,4.5-2.3,9.1-2.9,13.7c-0.5,3.7-0.6,7.4-0.3,11.1
	c0.3,3.8,0.6,7.7,0.9,11.5c0.4,3.9,0.8,7.8,1.2,11.6c0.4,3.6,0.8,7.2,1.2,10.8c0.4,3.4,0.8,6.8,1.2,10.3c0.1,0.6,0.1,1.1,0.2,1.7
	c1.8,0,3.7,0,5.6,0c0,1.3,0,2.5,0,3.8c-10.1,0-20.1,0-30.1,0C-193.9,441.8-193.9,440.5-193.9,439.3z"/>
<path class="st1" d="M-176.3,439.2c-0.1-1.9-0.1-3.8-0.2-5.6c-0.2-4.9-0.4-9.9-0.6-14.8c-0.1-3.5-0.3-7-0.4-10.5
	c-0.2-4.7-0.4-9.4-0.6-14.1c-0.2-4-0.4-8-0.6-12c-0.2-3.1-0.4-6.1-0.5-9.2c-0.1-1.6-0.2-3.1-0.3-4.7c0-0.2-0.2-0.5-0.4-0.5
	c-0.6-0.1-1.2,0-1.9,0c0,0.3,0.1,0.6,0.1,0.9c0.3,1.9,0.7,3.8,0.9,5.7c0.5,4.2,0.9,8.5,1.2,12.7c0.3,4.4,0,8.8-0.3,13.3
	c-0.3,3.1-0.5,6.2-0.8,9.2c-0.3,2.8-0.5,5.6-0.8,8.4c-0.3,3-0.6,5.9-0.9,8.9c-0.3,2.9-0.6,5.9-1,8.8c-0.1,1.2-0.2,2.3-0.4,3.5
	C-181.2,439.2-178.8,439.2-176.3,439.2z"/>
<path class="st1" d="M-177.3,367.9c0,0.1,0,0.2,0,0.2c0.1,2.7,0.2,5.4,0.5,8.1c0.1,1.1,0.4,2.2,0.6,3.2c0,0.2,0.2,0.4,0.4,0.5
	c0.2-0.2,0.4-0.3,0.5-0.5c0.2-0.4,0.4-0.9,0.5-1.3c0.3-1.5,0.7-3.1,1-4.6c0.3-1.9,0.5-3.8,0.8-5.7
	C-174.6,367.9-175.9,367.9-177.3,367.9z"/>
<path class="st1" d="M-165.7,364.3c-7.6,0-15.2,0-22.8,0c0,0.4,0,0.7,0,1c7.6,0,15.2,0,22.8,0C-165.7,365-165.7,364.7-165.7,364.3z"
	/>
</svg>
