<?xml version="1.0" encoding="utf-8"?>
<!-- Generator: Adobe Illustrator 19.0.1, SVG Export Plug-In . SVG Version: 6.00 Build 0)  -->
<!DOCTYPE svg PUBLIC "-//W3C//DTD SVG 1.1//EN" "http://www.w3.org/Graphics/SVG/1.1/DTD/svg11.dtd">
<svg version="1.1" id="Layer_1" xmlns="http://www.w3.org/2000/svg" xmlns:xlink="http://www.w3.org/1999/xlink" x="0px" y="0px"
	 viewBox="0 0 100 100" style="enable-background:new 0 0 100 100;" xml:space="preserve">
<style type="text/css">
	.st0{fill:#4B4A4B;}
	.st1{fill:#FFFFFF;}
	.st2{fill:none;stroke:#FFFFFF;stroke-miterlimit:10;}
	.st3{fill:#FFFFFF;stroke:#4B4A4B;stroke-miterlimit:10;}
	.st4{fill:#4B4A4B;stroke:#4C4A4C;stroke-miterlimit:10;}
</style>
<polygon class="st0" points="18.8,92.2 95.3,15.7 95.3,92.2 "/>
<polygon class="st1" points="46.2,82.1 82.6,45.7 82.6,82.1 "/>
<g>
	<g>
		<line class="st2" x1="95.4" y1="92.6" x2="90.5" y2="92.6"/>
	</g>
	<g>
		<line class="st2" x1="95.4" y1="82.6" x2="90.5" y2="82.6"/>
	</g>
	<g>
		<line class="st2" x1="95.4" y1="72.6" x2="90.5" y2="72.6"/>
	</g>
	<g>
		<line class="st2" x1="95.4" y1="62.6" x2="90.5" y2="62.6"/>
	</g>
	<g>
		<line class="st2" x1="95.4" y1="52.6" x2="90.5" y2="52.6"/>
	</g>
	<g>
		<line class="st2" x1="95.4" y1="42.6" x2="90.5" y2="42.6"/>
	</g>
	<g>
		<line class="st2" x1="95.4" y1="32.6" x2="90.5" y2="32.6"/>
	</g>
</g>
<g>
	<g>
		<line class="st2" x1="84.5" y1="87.3" x2="84.5" y2="92.2"/>
	</g>
	<g>
		<line class="st2" x1="74.5" y1="87.3" x2="74.5" y2="92.2"/>
	</g>
	<g>
		<line class="st2" x1="64.5" y1="87.3" x2="64.5" y2="92.2"/>
	</g>
	<g>
		<line class="st2" x1="54.5" y1="87.3" x2="54.5" y2="92.2"/>
	</g>
	<g>
		<line class="st2" x1="44.5" y1="87.3" x2="44.5" y2="92.2"/>
	</g>
	<g>
		<line class="st2" x1="34.5" y1="87.3" x2="34.5" y2="92.2"/>
	</g>
</g>
<rect x="56.7" y="32.6" transform="matrix(0.7071 0.7071 -0.7071 0.7071 43.1868 -32.639)" class="st3" width="8.7" height="6.4"/>
<polygon class="st4" points="61.8,41.1 40.6,62.3 34.6,62.3 34.5,62.2 34.5,56.2 55.7,35 "/>
</svg>
