<?xml version="1.0" encoding="utf-8"?>
<!-- Generator: Adobe Illustrator 19.0.0, SVG Export Plug-In . SVG Version: 6.00 Build 0)  -->
<!DOCTYPE svg PUBLIC "-//W3C//DTD SVG 1.1//EN" "http://www.w3.org/Graphics/SVG/1.1/DTD/svg11.dtd">
<svg version="1.1" id="Layer_1" xmlns="http://www.w3.org/2000/svg" xmlns:xlink="http://www.w3.org/1999/xlink" x="0px" y="0px"
	 viewBox="-255 347 100 100" style="enable-background:new -255 347 100 100;" xml:space="preserve">
<style type="text/css">
	.st0{fill:#4A4A4A;}
</style>
<path class="st0" d="M-251.3,379.2c0-4.7,0-9.2,0-13.9c11.2,0,22.4,0,33.6,0c0,4.5,0,9.1,0,13.9c-2.8,0-5.6,0-8.3,0
	c2.7,13.4,5.5,26.5,8.2,39.6c0.3-0.4,0.4-0.9,0.5-1.3c2.3-10.5,4.7-21,7-31.6c1.6-6.9,3-13.8,4.6-20.7c3.9,0,7.9,0,11.8,0
	c0,0.4,0.1,0.6,0.1,1c2.8,13.9,5.7,27.8,8.6,41.5c0.7,3.7,1.5,7.3,2.3,11c0.1,0,0.1,0,0.2,0c2.9-13.1,5.9-26.4,8.9-39.8
	c-2.8,0-5.5,0-8.1,0c0-4.7,0-9.2,0-13.8c8.4,0,16.8,0,25.2,0c0,4.7,0,9.2,0,13.9c-2.1,0-4.1,0-6.2-0.1c-0.9,0-1.4,0.3-1.6,1.4
	c-3.6,16.4-7.1,32.8-10.7,49.4c-0.8,4-1.8,8-2.7,12c-6,0-11.9,0-17.9,0c-0.1-0.3-0.2-0.5-0.2-0.9c-2.1-10-4.2-20.1-6.3-30
	c-0.5-2.8-1.2-5.4-1.8-8.5c-0.2,0.6-0.3,0.9-0.3,1.3c-1.8,8.1-3.6,16.2-5.3,24.2c-1.1,4.7-2.1,9.2-3.2,13.9c-6,0-11.9,0-17.9,0
	c-0.1-0.4-0.2-0.8-0.3-1.1c-2.9-13.9-5.8-27.8-8.7-41.8c-1.3-6.2-2.5-12.4-3.9-18.6c-0.1-0.5,0-1.3-0.8-1.3
	C-246.7,379.1-249,379.2-251.3,379.2z"/>
</svg>
