<?xml version="1.0" encoding="utf-8"?>
<!-- Generator: Adobe Illustrator 19.0.0, SVG Export Plug-In . SVG Version: 6.00 Build 0)  -->
<!DOCTYPE svg PUBLIC "-//W3C//DTD SVG 1.1//EN" "http://www.w3.org/Graphics/SVG/1.1/DTD/svg11.dtd">
<svg version="1.1" id="Layer_1" xmlns="http://www.w3.org/2000/svg" xmlns:xlink="http://www.w3.org/1999/xlink" x="0px" y="0px"
	 viewBox="-255 347 100 100" style="enable-background:new -255 347 100 100;" xml:space="preserve">
<style type="text/css">
	.st0{fill:#4A4A4A;}
</style>
<path class="st0" d="M-246.5,381.2c0-0.1,0.1-0.2,0.1-0.3c0.3-1.3,1.6-2.3,2.9-2.1c1.4,0.2,2.5,1.3,2.5,2.8c0,16.2,0,32.4,0,48.4
	c0,0.2,0,0.4,0,0.8c0.3,0,0.5,0,0.8,0c9.7,0,19.3,0,29.1,0c2,0,3,1.1,3,3c0,0.8,0,1.5,0,2.4c3.7,0,7.3,0,11,0c0-0.8,0-1.5,0-2.4
	c0-2,1.1-3,3-3c9.7,0,19.3,0,29,0c0.2,0,0.4,0,0.8,0c0-0.3,0-0.5,0-0.8c0-16.2,0-32.4,0-48.5c0-1.4,0.9-2.5,2.4-2.7
	c1.2-0.2,2.5,0.7,2.9,1.8c0.1,0.2,0.1,0.4,0.2,0.5c0,17.6,0,35.1,0,52.7c-0.8,2.1-1.3,2.5-3.6,2.5c-9.6,0-19.1,0-28.6,0
	c-0.2,0-0.4,0-0.8,0c0,0.9,0,1.7,0,2.5c0,1.2-0.4,2.1-1.5,2.6c-0.2,0.1-0.5,0.2-0.9,0.3c-5.8,0-11.5,0-17.3,0
	c-2-0.8-2.3-1.4-2.3-3.6c0-0.7,0-1.3,0-2c-0.3,0-0.5,0-0.8,0c-9.8,0-19.4,0-29.2,0c-1.4,0-2.5-0.8-2.8-2.2c0-0.1-0.1-0.2-0.1-0.2
	C-246.5,416.3-246.5,398.7-246.5,381.2z"/>
<path class="st0" d="M-185.3,365c1.2,0.1,2.4,0.2,3.5,0.4c5.8,1.2,10.4,4.1,14.1,8.8c0.4,0.7,0.7,1.3,0.7,2.1c0,1.7,0,3.5,0,5.3
	c0,14.3,0,28.8,0,43.1c0,0.4,0,0.9-0.1,1.3c-0.3,1-1,1.6-2,2c-1.1,0.2-2-0.1-2.7-0.9c-1.2-1.2-2.3-2.5-3.6-3.6
	c-2.9-2.3-6.3-3.5-10-3.6c-6.1-0.2-11,2.2-14.8,6.8c-1.4,1.7-3.3,1.7-4.8,0c-3.3-4.1-7.6-6.5-12.9-6.8c-5.8-0.3-10.6,1.7-14.5,6
	c-0.3,0.3-0.7,0.8-1,1.2c-0.8,0.9-1.8,1.2-2.9,0.8c-1.1-0.4-1.7-1.2-1.8-2.4c0-0.2,0-0.4,0-0.8c0-16.1,0-32.1,0-48.2
	c0-1,0.3-1.8,1-2.7c3.7-4.6,8.5-7.4,14.2-8.5c1-0.2,2.1-0.2,3.1-0.4c0.7,0,1.3,0,2,0c0.2,0,0.3,0.1,0.5,0.1
	c5.6,0.4,10.5,2.5,14.5,6.4c0.3,0.3,0.4,0.2,0.8,0c3.4-3.1,7.3-5.2,11.7-6c1.1-0.2,2.3-0.3,3.4-0.4C-186.6,365-185.9,365-185.3,365z
	 M-169.7,425.3c0-0.2,0-0.3,0-0.5c0-16.2,0-32.2,0-48.4c0-0.2-0.1-0.5-0.2-0.7c-4.3-5.3-10-8-16.8-7.9c-5.5,0.1-10.3,2.3-14.1,6.3
	c-0.1,0.1-0.2,0.4-0.2,0.7c0,16.1,0,32.1,0,48.2c0,0.2,0,0.4,0,0.8c4.6-4.6,9.9-6.8,16.2-6.5C-178.9,417.5-173.8,420.3-169.7,425.3z
	 M-235.5,425.3c4-5,9.1-7.8,15.4-8.1s11.6,2,16.2,6.5c0-0.3,0-0.5,0-0.8c0-16.1,0-32,0-48.1c0-0.2-0.1-0.5-0.3-0.8
	c-4.2-4.2-9.3-6.4-15.4-6.2c-6.3,0.2-11.4,2.9-15.4,7.7c-0.2,0.3-0.3,0.7-0.3,1.1c0,16,0,31.9,0,48
	C-235.5,424.8-235.5,425-235.5,425.3z"/>
</svg>
