<?xml version="1.0" encoding="utf-8"?>
<!-- Generator: Adobe Illustrator 19.0.0, SVG Export Plug-In . SVG Version: 6.00 Build 0)  -->
<!DOCTYPE svg PUBLIC "-//W3C//DTD SVG 1.1//EN" "http://www.w3.org/Graphics/SVG/1.1/DTD/svg11.dtd">
<svg version="1.1" id="Layer_1" xmlns="http://www.w3.org/2000/svg" xmlns:xlink="http://www.w3.org/1999/xlink" x="0px" y="0px"
	 viewBox="-255 347 100 100" style="enable-background:new -255 347 100 100;" xml:space="preserve">
<style type="text/css">
	.st0{fill:none;stroke:#4B4A4B;stroke-width:3;stroke-miterlimit:10;}
	.st1{fill:#4B4A4B;}
</style>
<path class="st0" d="M-170.7,374.2c0,0,15.9-4.2,13.4,4.9c-2.5,9-19.7,13.9-19.7,13.9"/>
<path class="st1" d="M-165.6,362.9c-9,26.3-12.1,47.5-19,54.5c-9,0-7.8,0.8-15,0.4h1.1c-7.6-0.2-4.4-0.2-13.4-0.2
	c-7.1-7.1-10.5-28.3-19.6-54.7L-165.6,362.9L-165.6,362.9z"/>
<path class="st1" d="M-159.8,414c-9.2,24.7-9.4,15.9-19.6,22.5c-10.2,0-11,0.2-19-0.1h1.3c-7.7,0.2-8.2,0.2-18.6-0.2
	c-8.6-6-11.3,2.9-18.7-22.1L-159.8,414L-159.8,414z"/>
</svg>
