<?xml version="1.0" encoding="utf-8"?>
<!-- Generator: Adobe Illustrator 19.0.0, SVG Export Plug-In . SVG Version: 6.00 Build 0)  -->
<!DOCTYPE svg PUBLIC "-//W3C//DTD SVG 1.1//EN" "http://www.w3.org/Graphics/SVG/1.1/DTD/svg11.dtd">
<svg version="1.1" id="Layer_1" xmlns="http://www.w3.org/2000/svg" xmlns:xlink="http://www.w3.org/1999/xlink" x="0px" y="0px"
	 viewBox="0 0 100 100" style="enable-background:new 0 0 100 100;" xml:space="preserve">
<style type="text/css">
	.st0{fill:#4A4A4A;}
	.st1{fill:#FFFFFF;}
</style>
<path id="XMLID_96_" class="st0" d="M1.5,63.4c0.1-0.1,0.2-0.2,0.3-0.3C17.7,47.1,33.7,31.1,49.6,15c0.1-0.1,0.2-0.3,0.4-0.5
	c7.5,7.6,14.9,15.1,22.4,22.6c0-1.3,0-2.4,0-3.6c3.4,0,6.7,0,10.1,0c0,0.2,0,0.3,0,0.5c0,4.3,0,8.6,0,12.9c0,0.3,0.1,0.5,0.3,0.7
	C87.9,52.8,93,58,98.2,63.2c0.1,0.1,0.2,0.2,0.3,0.3c0,0,0,0.1,0,0.1c-0.1,0-0.3,0-0.4,0c-4.5,0-9,0-13.5,0c-0.3,0-0.5-0.1-0.8-0.3
	C72.6,52,61.5,40.7,50.3,29.4c-0.1-0.1-0.2-0.2-0.4-0.4c-0.1,0.2-0.2,0.3-0.3,0.4C38.5,40.7,27.4,52,16.2,63.2
	c-0.2,0.2-0.4,0.3-0.7,0.3c-4.5,0-9,0-13.5,0C1.8,63.5,1.7,63.5,1.5,63.4C1.5,63.5,1.5,63.5,1.5,63.4z"/>
<path id="XMLID_92_" class="st0" d="M17.6,96c0-0.2,0-0.4,0-0.5c0-10.5,0-21,0-31.5c0-0.3,0.1-0.5,0.3-0.8
	c10.6-10.7,21.2-21.4,31.8-32.1c0.1-0.1,0.2-0.2,0.3-0.4c0.2,0.2,0.3,0.3,0.4,0.4c10.6,10.7,21.2,21.4,31.8,32.1
	c0.2,0.2,0.3,0.5,0.3,0.8c0,10.5,0,21,0,31.5c0,0.2,0,0.3,0,0.5C60.8,96,39.2,96,17.6,96z"/>
<path id="XMLID_91_" class="st1" d="M70.9,71.9c-0.2,0-0.3,0-0.4,0c-3.5,0-7,0-10.5,0c-0.4,0-0.5,0.1-0.5,0.5c0,6.8,0,13.7,0,20.5
	c0,0.1,0,0.3,0,0.5c3.8,0,7.6,0,11.4,0C70.9,86.2,70.9,79.1,70.9,71.9z"/>
<path id="XMLID_90_" class="st1" d="M39.9,76.9c0-0.1,0-0.1,0-0.2c0-1.5,0-3,0-4.5c0-0.3-0.1-0.3-0.3-0.3c-1.3,0-2.6,0-3.9,0
	c-0.1,0-0.2,0-0.3,0c0,1.7,0,3.3,0,4.9C36.9,76.9,38.4,76.9,39.9,76.9z"/>
<path id="XMLID_89_" class="st1" d="M34.5,76.9c0-1.6,0-3.3,0-5c-1.5,0-3,0-4.5,0c0,1.7,0,3.3,0,5C31.5,76.9,33,76.9,34.5,76.9z"/>
<path id="XMLID_88_" class="st1" d="M35.4,77.8c0,1.4,0,2.7,0,4.1c0.1,0,0.1,0,0.1,0c1.4,0,2.8,0,4.2,0c0.3,0,0.3-0.1,0.3-0.3
	c0-1.2,0-2.3,0-3.5c0-0.1,0-0.2,0-0.3C38.4,77.8,36.9,77.8,35.4,77.8z"/>
<path id="XMLID_87_" class="st1" d="M34.5,77.8c-1.5,0-3,0-4.5,0c0,1.4,0,2.7,0,4.1c1.5,0,3,0,4.5,0C34.5,80.5,34.5,79.2,34.5,77.8z
	"/>
</svg>
