<svg id="Layer_1" xmlns="http://www.w3.org/2000/svg" viewBox="-50 50 100 100"><style>.st0{fill:#4a4a4a}.st1{fill:none;stroke:#4a4a4a;stroke-width:2;stroke-miterlimit:10}</style><path id="XMLID_73_" class="st0" d="M-34.2 107.7c.1-23.4 18.8-42.2 42-42.1 23.6.1 42.3 18.9 42.2 42.7-.1 22.9-19.4 42-42.4 41.7-23.4-.3-41.9-19-41.8-42.3zm42 36.6c19.9 0 36.5-16.5 36.6-36.4.1-19.9-16.5-36.6-36.5-36.6-20.1 0-36.6 16.5-36.6 36.6.1 19.8 16.6 36.4 36.5 36.4z"/><path id="XMLID_72_" class="st1" d="M7.8 138c-16.4 0-30.1-13.7-30.2-30.1 0-16.6 13.6-30.2 30.2-30.2 16.5 0 30.3 13.8 30.2 30.3 0 16.3-13.8 30-30.2 30z"/><path id="XMLID_65_" class="st0" d="M-4.1 122.5c.3-4.8.5-9.7.8-14.5.2-2.3-.3-4.4-1.9-6.2-2.4-2.7-2-8.4 1.3-11.1 1.2-1 2.9-.8 4.1.3 2.9 2.8 3.5 8.3.7 11.2-1.2 1.3-1.7 3-1.6 4.7.3 5.4.6 10.8.9 16.1.1 1.3-.6 2.3-1.7 2.5-1 .2-2.2-.3-2.5-1.4-.2-.3-.1-1-.1-1.6z"/><path id="XMLID_64_" class="st0" d="M16.7 107.6V92.1c0-1.1.4-1.8 1.2-1.9.7-.2 1.5.3 2 1.2.8 1.6 1.1 3.3 1.1 5.1.1 3.8.1 7.5 0 11.3 0 .5-.3 1-.6 1.4-.5.6-.6 1.3-.5 2.1.4 3.8.7 7.7 1.1 11.5 0 .5.1 1 0 1.5-.2.9-1.1 1.5-2 1.6-.9 0-1.8-.6-2.1-1.5-.1-.4-.1-.7-.1-1.1-.1-5.4-.1-10.5-.1-15.7z"/><path id="XMLID_63_" class="st0" d="M10.2 90.1c0 .7.1 1.5.1 2.2 0 2.4.1 4.8.1 7.2 0 .2-.1.4 0 .5.1.3.3.5.5.7.1-.2.4-.5.4-.7v-4c0-1.7-.1-3.4 0-5.2 0-.3.2-.5.3-.8.1.2.3.5.4.7.3 3.4.7 6.8.9 10.2.1.8-.3 1.7-.6 2.5-.2.6-.6 1.1-1 1.6-.7 1-.9 2.2-.8 3.4.3 4.9.6 9.9.9 14.8.1 1.3-.9 2.3-2.1 2.3-1.3 0-2.2-1-2.1-2.3.3-4.6.5-9.3.8-13.9.1-1.9 0-3.6-1.2-5.1-1.1-1.4-1.3-2.9-1.1-4.6.3-2.9.5-5.8.8-8.6 0-.4.3-.7.4-1.1.1.4.3.7.3 1.1v8.7c0 .2 0 .5.1.7.1.1.4.2.5.2.2-.2.3-.5.3-.7.1-2.4.1-4.8.1-7.2v-2c0-.3.2-.5.3-.7.1.2.3.5.3.7V98c0 .6-.1 1.2 0 1.7 0 .3.3.6.5.9.1-.3.4-.6.4-.9v-8.8c0-.3.1-.7.1-1 .1.2.3.2.4.2z"/></svg>