<svg id="Layer_1" xmlns="http://www.w3.org/2000/svg" viewBox="-255 347 100 100"><style>.st0{fill:#4c4a4c}.st1{fill:#fff}</style><path class="st0" d="M-183 402.2c.7-1.2 3.1-4.1 3.1-4.1l-2.7-2.7 2.7-2.7-2.8-2.8 2.9-2.9-2.9-2.9 2.9-2.9-3.2-3.2 3.2-3.2-3.5-3.5.3-.3 3.1-3.1-4-4.1 5-4.2c0-3.4 3.8-6.2 8.5-6.2v4.8c7.1 0 12.9 3.8 12.9 8.5s-5.8 8.4-12.9 8.4v-.2l-.3 65.3c0 1.9-1.5 3.4-3.4 3.4h-5.5c-.1-4.3-2.4-7.8-6.8-7.8-4.6.5-7.6 3.5-8 7.7h-6c-1.9 0-3.4-1.5-3.4-3.4l.1-30.3c0-1.9 1.5-3.7 3.4-3.7 0 0 14.4 1 16.4-.2 0-.2.4-2.9.9-3.7z"/><circle class="st1" cx="-184.4" cy="411.9" r="3"/><circle class="st1" cx="-196.3" cy="433" r="3"/><circle class="st1" cx="-191.1" cy="411.9" r=".9"/><circle class="st1" cx="-198.7" cy="424.1" r=".9"/><circle class="st1" cx="-198.6" cy="408.1" r=".9"/><circle class="st1" cx="-198.6" cy="415.6" r="2.4"/><circle class="st1" cx="-188.9" cy="418.1" r="1.5"/><circle class="st1" cx="-174.2" cy="386.5" r="1.5"/><circle class="st1" cx="-192.5" cy="424.1" r="1.3"/><circle class="st1" cx="-182.9" cy="431.3" r="2.5"/><circle class="st1" cx="-175" cy="440.3" r=".9"/><circle class="st1" cx="-174.1" cy="433.1" r="1.8"/><circle class="st1" cx="-176.1" cy="395.2" r="1.8"/><circle class="st1" cx="-174" cy="420.3" r="1.8"/><circle class="st1" cx="-183" cy="421.4" r="1.4"/><circle class="st1" cx="-174.3" cy="412.9" r="2.5"/><circle class="st1" cx="-173.7" cy="402.3" r=".9"/><circle class="st1" cx="-178.3" cy="378.3" r=".7"/><circle class="st1" cx="-174.9" cy="376.1" r="1.5"/><circle class="st1" cx="-177.3" cy="362.6" r="1.7"/><circle class="st1" cx="-174.1" cy="356.2" r=".7"/><circle class="st1" cx="-168.9" cy="361.1" r="1.1"/><circle class="st1" cx="-158.9" cy="366.8" r=".5"/></svg>