<svg id="Layer_1" xmlns="http://www.w3.org/2000/svg" viewBox="-255 347 100 100"><style>.st0{fill:none;stroke:#4b4a4b;stroke-width:3;stroke-miterlimit:10}.st1{fill:#4b4a4b}</style><path class="st0" d="M-170.7 374.2s15.9-4.2 13.4 4.9c-2.5 9-19.7 13.9-19.7 13.9"/><path class="st1" d="M-165.6 362.9c-9 26.3-12.1 47.5-19 54.5-9 0-7.8.8-15 .4h1.1c-7.6-.2-4.4-.2-13.4-.2-7.1-7.1-10.5-28.3-19.6-54.7h65.9z"/><path class="st1" d="M-159.8 414c-9.2 24.7-9.4 15.9-19.6 22.5-10.2 0-11 .2-19-.1h1.3c-7.7.2-8.2.2-18.6-.2-8.6-6-11.3 2.9-18.7-22.1l74.6-.1z"/></svg>