<svg id="Layer_1" xmlns="http://www.w3.org/2000/svg" viewBox="0 0 100 100"><style>.st0{fill:#4a4a4a}.st1{fill:#fff}</style><path id="XMLID_96_" class="st0" d="M1.5 63.4l.3-.3c15.9-16 31.9-32 47.8-48.1.1-.1.2-.3.4-.5 7.5 7.6 14.9 15.1 22.4 22.6v-3.6h10.1v13.4c0 .3.1.5.3.7C87.9 52.8 93 58 98.2 63.2l.3.3v.1H84.6c-.3 0-.5-.1-.8-.3C72.6 52 61.5 40.7 50.3 29.4l-.4-.4c-.1.2-.2.3-.3.4C38.5 40.7 27.4 52 16.2 63.2c-.2.2-.4.3-.7.3H2c-.2 0-.3 0-.5-.1 0 .1 0 .1 0 0z"/><path id="XMLID_92_" class="st0" d="M17.6 96V64c0-.3.1-.5.3-.8l31.8-32.1c.1-.1.2-.2.3-.4l.4.4 31.8 32.1c.2.2.3.5.3.8v32H17.6z"/><path id="XMLID_91_" class="st1" d="M70.9 71.9H60c-.4 0-.5.1-.5.5v21h11.4V71.9z"/><path id="XMLID_90_" class="st1" d="M39.9 76.9v-4.7c0-.3-.1-.3-.3-.3h-4.2v4.9c1.5.1 3 .1 4.5.1z"/><path id="XMLID_89_" class="st1" d="M34.5 76.9v-5H30v5h4.5z"/><path id="XMLID_88_" class="st1" d="M35.4 77.8v4.1h4.3c.3 0 .3-.1.3-.3v-3.8h-4.6z"/><path id="XMLID_87_" class="st1" d="M34.5 77.8H30v4.1h4.5v-4.1z"/></svg>