<svg id="Layer_1" xmlns="http://www.w3.org/2000/svg" viewBox="-255 347 100 100"><style>.st0{fill:#777}</style><path class="st0" d="M-204.9 358.9h39.4c3.9 0 6.3 2.5 6.3 7.3v62.6c0 4.5-2.2 7.3-6.3 7.3h-79c-3.9 0-6.3-2.5-6.3-7v-63c0-4.1 2.3-6.8 5.9-6.8 13.5-.4 26.8-.4 40-.4zm-34.5 7.7c11.6 12.2 23 24.3 34.4 36.4 11.4-12.1 22.8-24.2 34.4-36.4h-68.8zm0 61.3h68.8c-8.3-8.4-16.3-16.7-24.4-25h-.3c-1.9 2-3.9 4.1-5.8 6.1-2.5 2.5-5.5 2.5-7.8 0-2-2-3.9-4.1-5.9-6.3-8.3 8.6-16.3 16.8-24.6 25.2zm73.3-55.5c-8.1 8.6-15.9 16.9-23.9 25.3 8 8.3 15.9 16.3 23.9 24.6v-49.9zm-77.8 50c8.1-8.3 15.9-16.3 23.9-24.6-8-8.4-15.9-16.7-23.9-25.3v49.9z"/></svg>