<svg id="Layer_1" xmlns="http://www.w3.org/2000/svg" viewBox="0 0 100 100"><style>.st0{fill:#4c4a4c}.st1{fill:#fff}.st2{fill:none;stroke:#4c4a4c;stroke-miterlimit:10}</style><g id="XMLID_49_"><g id="XMLID_40_"><path id="XMLID_42_" class="st0" d="M84.6 98.4H72.4s3.2-60.8 3.2-65.5c-1.6-.6.3-.8.3-.8l.3-12.4h-.8v-1l1.1-.1s0-1.8.3-1.9c.4-2.9.9-4.5 1.3-4.7s1 4.7 1 4.7h.7v-1.5L83.3 7v-.5l.4-.4V4.2l.9-2.2.9 2.2v1.9l.4.4V7l3.7 8.2v1.5h.7s.6-4.9 1-4.7.9 1.8 1.3 4.7c.3 0 .3 1.9.3 1.9l1.1.1v1h-.8l.3 12.4s1.9.2.3.8c0 4.7 3.2 65.5 3.2 65.5H84.6z"/></g><path id="XMLID_41_" class="st1" d="M79.4 23.3s1.2-1.5 2.9 0v6.9h-2.9v-6.9z"/><path id="XMLID_45_" class="st1" d="M83.1 23.3s1.2-1.5 2.9 0v6.9h-2.9v-6.9z"/><path id="XMLID_46_" class="st1" d="M86.8 23.3s1.2-1.5 2.9 0v6.9h-2.9v-6.9z"/><circle id="XMLID_44_" class="st1" cx="84.4" cy="39" r="5.2"/><path id="XMLID_47_" class="st2" d="M82.8 39h5"/><path id="XMLID_48_" class="st2" d="M84.9 39.5L82 36.6"/><circle id="XMLID_50_" class="st1" cx="84.4" cy="39" r=".3"/></g></svg>