<svg id="Layer_1" xmlns="http://www.w3.org/2000/svg" viewBox="-255 347 100 100"><style>.st0{fill:#4a4a4a}</style><path class="st0" d="M-246.5 381.2c0-.1.1-.2.1-.3.3-1.3 1.6-2.3 2.9-2.1 1.4.2 2.5 1.3 2.5 2.8v49.2h29.9c2 0 3 1.1 3 3v2.4h11v-2.4c0-2 1.1-3 3-3h29.8v-49.3c0-1.4.9-2.5 2.4-2.7 1.2-.2 2.5.7 2.9 1.8.1.2.1.4.2.5v52.7c-.8 2.1-1.3 2.5-3.6 2.5h-29.4v2.5c0 1.2-.4 2.1-1.5 2.6-.2.1-.5.2-.9.3h-17.3c-2-.8-2.3-1.4-2.3-3.6v-2h-30c-1.4 0-2.5-.8-2.8-2.2 0-.1-.1-.2-.1-.2.2-17.4.2-35 .2-52.5z"/><path class="st0" d="M-185.3 365c1.2.1 2.4.2 3.5.4 5.8 1.2 10.4 4.1 14.1 8.8.4.7.7 1.3.7 2.1v48.4c0 .4 0 .9-.1 1.3-.3 1-1 1.6-2 2-1.1.2-2-.1-2.7-.9-1.2-1.2-2.3-2.5-3.6-3.6-2.9-2.3-6.3-3.5-10-3.6-6.1-.2-11 2.2-14.8 6.8-1.4 1.7-3.3 1.7-4.8 0-3.3-4.1-7.6-6.5-12.9-6.8-5.8-.3-10.6 1.7-14.5 6-.3.3-.7.8-1 1.2-.8.9-1.8 1.2-2.9.8-1.1-.4-1.7-1.2-1.8-2.4v-49c0-1 .3-1.8 1-2.7 3.7-4.6 8.5-7.4 14.2-8.5 1-.2 2.1-.2 3.1-.4h2c.2 0 .3.1.5.1 5.6.4 10.5 2.5 14.5 6.4.3.3.4.2.8 0 3.4-3.1 7.3-5.2 11.7-6 1.1-.2 2.3-.3 3.4-.4h1.6zm15.6 60.3v-48.9c0-.2-.1-.5-.2-.7-4.3-5.3-10-8-16.8-7.9-5.5.1-10.3 2.3-14.1 6.3-.1.1-.2.4-.2.7v49c4.6-4.6 9.9-6.8 16.2-6.5 5.9.2 11 3 15.1 8zm-65.8 0c4-5 9.1-7.8 15.4-8.1s11.6 2 16.2 6.5v-48.9c0-.2-.1-.5-.3-.8-4.2-4.2-9.3-6.4-15.4-6.2-6.3.2-11.4 2.9-15.4 7.7-.2.3-.3.7-.3 1.1v48c-.2.2-.2.4-.2.7z"/></svg>