<svg id="Layer_1" xmlns="http://www.w3.org/2000/svg" viewBox="436 347 100 100"><style>.st0{fill:#4b4a4b}</style><path class="st0" d="M446.6 395.1s-1-.5-6.3 0c-.7-3.7.2-4 5.3-5.1.7-1.2-.5-2-6.5-3.3-1.2-4.3-.7-2.8 1.8-6.3 1 .7 3.3 1 3.3 1h9c3.7 0 4 4.3 4 5.1 0 .7 1.8.5 1.8.5l.7-1.8c.7 1.2 2 .7 4.6.7 0 0-1.2-1.2-2-3 .5-.7 6-1 6-1l2.8-.5s.3 1.6 1.2 1.6 0 3 0 3l-1.2 1c-.2.7 3.5 1.2 3.5 1.2l3.4-5.5c-6.6-10.6-3.1-16.1-2.2-16.9 1-.7-1-4.6-1-4.6v-2.5c0 2.6 6.5 3.7 6.3 3.7-.2 0 0-7.6 0-7.6l8.6 5.1s13.1 10.8 11.6 13.6c-1.6 2.8 1.8 1.4 1.8 1.4v2.2l-3 1.8 3 1.2v3.3h4l2 6v5.6l2 2-2 2.3v2.3s6.5 5.5 21.1-16.1c3.5 2.3 4 8.3 4 8.3s2.8 16.6-15.1 18.3c1.6 6-5.5-4.3 1.2 8.6l-2.3 2s.5 3.3 3.3 3.5c2.8.2 7.8 5.3 7.6 7.6.2 3.7.2 6 .2 6h-1.2s2 8.6-14.3 3.7c0-5.1-2.8-5.1 5.5-11.8l-9.8.2s-4.6-4-10.4-14.3l-10.6 3.5-2 5.5 1.8 3.6H485s3.3 8.8 2.5 10.6c-3 2.3-1.6 1.8-5.8 2.3-4.3.5-6 .7-6 .7s-14 4-12.8-3c1.2-7 .2-9.1 12.3-6l1-2.3 2.3-.7s-2.3-13.5-3.5-15.3c3.7-2.6 2.5-7.1 12.6-8.1-5.8-4.8-4.6-4.8-5.1-6-9 3-17.4 5.3-19.1-3.5l.7-3.7-7-.7-1.8 2-8.1.5-.6-1.9z"/></svg>