<svg id="Layer_1" xmlns="http://www.w3.org/2000/svg" viewBox="0 0 100 100"><style>.st0{fill:#4a4a4a}.st1{fill:#fff}.st2{fill:none}.st3{fill:#575757}.st4,.st5{fill-rule:evenodd;clip-rule:evenodd;fill:#4a4a4a}.st5{fill:#fff}</style><path id="XMLID_77_" class="st0" d="M79 85.8c0 1.6-1.3 2.9-2.9 2.9l-38.8-.1c-1.6 0-2.9-1.3-2.9-2.9l.1-23.9c0-1.6 1.3-2.9 2.9-2.9l38.7.1c1.6 0 2.9 1.3 2.9 2.9v23.9z"/><circle id="XMLID_76_" class="st1" cx="37.4" cy="61.5" r=".7"/><circle id="XMLID_75_" class="st1" cx="76.2" cy="61.6" r=".7"/><circle id="XMLID_74_" class="st1" cx="37.3" cy="86" r=".7"/><circle id="XMLID_73_" class="st1" cx="76.1" cy="86.1" r=".7"/><path id="XMLID_72_" class="st0" d="M72 89.1c-.7-2.1-1.5-4.3-2.4-5.1-12.4-.3-12.4-.3-24.8-.1-1.2 1.3-2.1 4-2.4 5.2H72z"/><circle id="XMLID_71_" class="st1" cx="46.7" cy="86.4" r="1.4"/><circle id="XMLID_70_" class="st1" cx="67.9" cy="86.5" r="1.4"/><path id="XMLID_69_" class="st1" d="M73.6 63l-33.8-.1-1.6 1.5-.1 15.9 37.2.1V64.7"/><path id="XMLID_68_" class="st2" d="M40.7 66.1l1.5-1.5-1.5 1.5z"/><path id="XMLID_67_" class="st0" d="M66.1 76.6c2.8 0 5-2.4 5-5.1 0-2.8-2.2-5.1-5-5.1l-18.3-.1c-2.8 0-5 2.4-5 5.1 0 2.8 2.2 5.1 5 5.1l18.3.1z"/><circle id="XMLID_66_" class="st1" cx="48.3" cy="71.5" r="3"/><circle id="XMLID_65_" class="st0" cx="48.2" cy="71.5" r="1.8"/><circle id="XMLID_64_" class="st1" cx="66.2" cy="71.6" r="3"/><circle id="XMLID_63_" class="st0" cx="66.1" cy="71.6" r="1.8"/><path id="XMLID_62_" transform="rotate(.197 57.003 71.655)" class="st1" d="M52.4 68.9h9.1v5.4h-9.1z"/><path id="XMLID_58_" class="st3" d="M59.3 74.4h2.3V69h-2.3c-.3.9-.6 1.6-.6 2.6 0 1.1.2 1.9.6 2.8z"/><path id="XMLID_57_" class="st3" d="M55.1 74.4h-2.7V69h2.7c.3.9.6 1.6.6 2.6s-.2 1.9-.6 2.8z"/><path id="XMLID_43_" class="st4" d="M20.6 65.6c1.1-.8 2.4-1.1 3.6-1.4.6-.2 1.2-.3 1.8-.5 1.1-.3 1.9.2 2 1.4.2 1.4.3 2.8.5 4.2.3 2.3.5 4.6.8 6.8.4 3.2.7 6.4 1.1 9.6.3 2.6.6 5.1.9 7.7 0 .2.1.4.1.6 0 .8-.6 1.5-1.4 1.4-1.7-.1-3.5-.2-5.2-.4-.3 0-.5-.1-.8-.2"/><path id="XMLID_41_" class="st4" d="M96.7 65.4c.9.1 1.3.8 1.6 1.6.7 1.7.9 3.5 1 5.3.2 3.2 0 6.4-.4 9.6-.5 3.6-1.2 7.1-2.5 10.5-.5 1.4-1.2 2.8-2.2 4-.6.7-1.3 1.1-2.3.8-.7-.2-1.5-.2-2.3-.3-.8-.1-1.1-.4-1.2-1.2v-.2l3.9-29.3c.3-1 .6-1.2 1.7-1h.4l2.3.2z"/><path id="XMLID_40_" class="st4" d="M95.2 59.2C94.4 50 91 42 84.6 35.2c-.2.3-.4.6-.5.8-.8 1.6-2.6 2.1-4.3 1.7-.7-.2-1.3-.5-1.9-.7-4.2-1.9-8.6-3.3-13.2-4-3.8-.6-7.7-.8-11.6-.6-6.3.4-12.4 1.9-18.1 4.6-1.3.6-2.7.7-4.1 0-.7-.3-1.1-.9-1.4-1.5-.1-.2-.3-.4-.4-.7-6.6 6.5-10.2 14.5-11.1 23.7l-1.3.2c.2-1.7.3-3.3.5-4.9.5-3.8 1.7-7.5 3.3-11 2.7-5.7 6.5-10.5 11.4-14.3 1.8-1.4 3.8-2.7 5.9-3.8 4.2-2.2 8.7-3.7 13.4-4.4 4.3-.6 8.5-.5 12.7.3C73.2 22.4 81 27 87.1 34.2c2.7 3.2 4.9 6.8 6.4 10.7 1.5 3.9 2.5 7.8 2.7 12 0 .7.1 1.4.1 2.1 0 .1.1.3.2.4l-1.3-.2z"/><path id="XMLID_39_" class="st4" d="M94.4 65.2v-5.4c0-.4.3-.5.7-.6l1.5.3c.5.3.7.6.6 1.2-.1 1.4-.3 2.7-.4 4.1 0 .3-.2.5-.3.7l-2.1-.3z"/><path id="XMLID_38_" class="st4" d="M16.5 64.7c-.1-.3-.3-.5-.3-.8l-.3-3.9c-.1-.8.1-1 .8-1.4l1.3-.2c.7.3.7.3.7 1v3.8c0 .4-.1.8-.1 1.3l-2.1.2z"/><path id="XMLID_37_" class="st4" d="M18.5 64.5c.9-.1 1.9-.4 2.1 1.1L24 94.9v.1c-.1 1.1-.3 1.3-1.3 1.4-.5.1-1 .1-1.6.2-.3 0-.7.1-1 .1-.6.1-1.1-.1-1.4-.5-.5-.7-1.1-1.3-1.4-2.1-1.3-2.4-1.9-5.1-2.5-7.7-.8-3.7-1.2-7.5-1.2-11.3 0-2.5.1-5 .8-7.4.2-.6.4-1.2.7-1.8.3-.6.8-1.1 1.5-1.1l1.9-.3z"/><path id="XMLID_36_" class="st5" d="M21.3 66.9c.5-.1.9-.1 1.4-.2 1.5-.2 2.9-.3 4.4-.5.5-.1.6-.1.6-.6 0-.2 0-.4-.1-.6-.1-.7-.6-1.1-1.2-.9-1.5.4-2.9.8-4.3 1.3-1 .3-1.1.1-.8 1.5z"/><path id="XMLID_35_" class="st5" d="M19.7 81l-.9.1c-.6.2-.7-.1-.7-.5-.2-2-.4-4-.7-6.1-.1-.9-.2-1.8-.2-2.7 0-.3.1-.4.4-.4 1.1-.1 2.2-.2 3.3-.4.3 0 .4.1.4.4.1 1.2.3 2.5.4 3.7.2 1.6.4 3.3.5 4.9v.6c-.5.1-1 .1-1.6.2l-.9.2z"/><path id="XMLID_34_" class="st5" d="M90.5 81.2l.3-2.7.6-4.8.3-1.8c0-.1.2-.3.3-.2 1.2.1 2.5.3 3.8.5 0 .5-.1 1-.1 1.5-.3 2.6-.6 5.1-1 7.7-.1.6-.1.7-.8.6-1-.1-2.1-.3-3.1-.5 0-.2-.1-.2-.3-.3z"/><path id="XMLID_31_" class="st4" d="M88.8 95.4c-2 .6-4 .5-6 .5-.9 0-1.5-.8-1.3-1.7.1-1 .3-2 .4-2.9.3-2.5.7-4.9 1-7.4.4-3.2.9-6.4 1.3-9.5.4-2.9.8-5.8 1.1-8.6.2-1.3.9-1.8 2.1-1.5 1.4.4 2.8.9 4.2 1.3.4.1.8.4 1.2.6l-4 29.2z"/><path id="XMLID_33_" class="st5" d="M85.6 66.7c-.1-.2-.2-.4-.2-.5 0-1.5.6-1.9 1.9-1.5 1.3.4 2.6.8 3.8 1.3.1 0 .1.1.2.1.7.3.7.3.5 1 0 .1-.1.3-.1.4-.9-.1-1.7-.3-2.6-.4-.9-.1-1.8-.2-2.8-.3"/></svg>