<svg id="Capa_1" xmlns="http://www.w3.org/2000/svg" viewBox="-255 347 100 100"><style>.st0{fill:#777}</style><path class="st0" d="M-251.6 419.7l1.6-9.4-1.6-9.7c0-.3-.5-.5-1-.5s-.9.3-1 .5l-1.4 9.7 1.4 9.4c0 .3.5.5 1 .5s.9-.3 1-.5zm10.2 5.2l1.4-14.5-1.4-22.5c0-.5-.6-1.1-1.2-1.1s-1.2.4-1.2 1.1l-1.2 22.5 1.2 14.5c0 .5.6 1.1 1.2 1.1.7-.1 1.2-.5 1.2-1.1zm10.2-.2l1.2-14.3-1.2-30c0-.7-.6-1.2-1.4-1.2-.8 0-1.4.5-1.4 1.2l-1 30 1 14.3c0 .7.6 1.2 1.4 1.2s1.4-.6 1.4-1.2zm10.2-.3l1-14.1-1-30.2c0-.8-.7-1.5-1.6-1.5-.9 0-1.6.7-1.6 1.5l-.8 30.2.9 14.1c0 .8.7 1.5 1.6 1.5.8 0 1.5-.6 1.5-1.5zm10.2-.2l.8-13.9-.8-34.6c0-.9-.8-1.8-1.8-1.8s-1.8.8-1.8 1.8l-.7 34.6.7 13.9c0 .9.8 1.8 1.8 1.8s1.8-.8 1.8-1.8zm7.2 1.8h35.7c7.1 0 12.9-7.5 12.9-16.8s-5.8-16.8-12.9-16.8c-1.8 0-3.4.4-5 1.3-1-15.1-10.8-26.9-22.6-26.9-2.9 0-5.7.8-8.2 2-1 .5-1.2.9-1.2 2v53.3c-.1 1 .5 1.8 1.3 1.9z"/></svg>