<svg id="Layer_1" xmlns="http://www.w3.org/2000/svg" viewBox="-255 347 100 100"><style>.st0{fill:#4a4a4a}.st1{fill:#fff}</style><path class="st0" d="M-193.9 439.3h5.9c.2-1.5.4-2.9.6-4.4.5-3.7 1.1-7.3 1.6-11l1.5-11.1c.4-3.2.9-6.4 1.3-9.6.8-5.7 1.4-11.4 1-17.1-.4-5.7-1-11.4-2.1-17-.1-.4-.1-.7-.2-1.1-.6 0-1.2 0-1.7-.1-.8-.2-1.6-.4-2.4-.7-.6-.3-1.1-.5-1.8-.4-.4.1-.6-.1-.7-.5 0-.1-.1-.3-.2-.4-.3-.7-.6-1.4-1.6-1.1v-1.1h1.9s0-.1-.1-.1c.2-.2.5-.5.7-.6 2.3-1.1 4.8-1.5 7.2-2.1.3-.1.7-.1 1-.2.3-.1.5-.3.8-.5-.4-.7-1.5-.7-1.4-1.7.7.2 1-.4 1.4-.8.7-.8 1.6-1.2 2.6-1.4.5-.1.7-.3.7-.9v-5.3h1c0 1.7.1 3.5 0 5.2 0 .6.2.9.8 1 1.2.3 2.3.8 3 2 .1.2.6.2.9.4.1.5-.3.7-.7.9l-.6.6c.3.2.5.5.8.5 2.3.7 4.7 1.3 7 1.9.4.1.7.3 1.1.5.2.1.4.4.6.5 0 0 0 .1-.1.1h1.9v1.1c-.8-.2-.9.4-1 .9-.3.9-.8 1.3-1.8 1.1-.4 0-.9.1-1.2.3-1.2.8-2.6.9-4 .9-.5 0-.6.2-.7.6-1.3 4.5-2.3 9.1-2.9 13.7-.5 3.7-.6 7.4-.3 11.1.3 3.8.6 7.7.9 11.5.4 3.9.8 7.8 1.2 11.6l1.2 10.8c.4 3.4.8 6.8 1.2 10.3.1.6.1 1.1.2 1.7h5.6v3.8h-30.1v-3.8z"/><path class="st1" d="M-176.3 439.2c-.1-1.9-.1-3.8-.2-5.6-.2-4.9-.4-9.9-.6-14.8-.1-3.5-.3-7-.4-10.5l-.6-14.1-.6-12c-.2-3.1-.4-6.1-.5-9.2-.1-1.6-.2-3.1-.3-4.7 0-.2-.2-.5-.4-.5-.6-.1-1.2 0-1.9 0 0 .3.1.6.1.9.3 1.9.7 3.8.9 5.7.5 4.2.9 8.5 1.2 12.7.3 4.4 0 8.8-.3 13.3-.3 3.1-.5 6.2-.8 9.2-.3 2.8-.5 5.6-.8 8.4-.3 3-.6 5.9-.9 8.9-.3 2.9-.6 5.9-1 8.8-.1 1.2-.2 2.3-.4 3.5h7.5zm-1-71.3v.2c.1 2.7.2 5.4.5 8.1.1 1.1.4 2.2.6 3.2 0 .2.2.4.4.5.2-.2.4-.3.5-.5.2-.4.4-.9.5-1.3.3-1.5.7-3.1 1-4.6.3-1.9.5-3.8.8-5.7-1.6.1-2.9.1-4.3.1zm11.6-3.6h-22.8v1h22.8v-1z"/></svg>