<svg id="Layer_1" xmlns="http://www.w3.org/2000/svg" viewBox="0 0 100 100"><style>.st0{fill:#4b4a4b}.st1{fill:#fff}.st2{fill:none;stroke:#fff}.st2,.st3,.st4{stroke-miterlimit:10}.st3{fill:#fff;stroke:#4b4a4b}.st4{fill:#4b4a4b;stroke:#4c4a4c}</style><path class="st0" d="M18.8 92.2l76.5-76.5v76.5z"/><path class="st1" d="M46.2 82.1l36.4-36.4v36.4z"/><path class="st2" d="M95.4 92.6h-4.9m4.9-10h-4.9m4.9-10h-4.9m4.9-10h-4.9m4.9-10h-4.9m4.9-10h-4.9m4.9-10h-4.9m-6 54.7v4.9m-10-4.9v4.9m-10-4.9v4.9m-10-4.9v4.9m-10-4.9v4.9m-10-4.9v4.9"/><path transform="rotate(45.001 60.993 35.811)" class="st3" d="M56.7 32.6h8.7V39h-8.7z"/><path class="st4" d="M61.8 41.1L40.6 62.3h-6l-.1-.1v-6L55.7 35z"/></svg>