<svg id="Layer_1" xmlns="http://www.w3.org/2000/svg" viewBox="-255 347 100 100"><style>.st0{fill:#4a4a4a}</style><path class="st0" d="M-251.3 379.2v-13.9h33.6v13.9h-8.3c2.7 13.4 5.5 26.5 8.2 39.6.3-.4.4-.9.5-1.3 2.3-10.5 4.7-21 7-31.6 1.6-6.9 3-13.8 4.6-20.7h11.8c0 .4.1.6.1 1 2.8 13.9 5.7 27.8 8.6 41.5.7 3.7 1.5 7.3 2.3 11h.2c2.9-13.1 5.9-26.4 8.9-39.8h-8.1v-13.8h25.2V379c-2.1 0-4.1 0-6.2-.1-.9 0-1.4.3-1.6 1.4-3.6 16.4-7.1 32.8-10.7 49.4-.8 4-1.8 8-2.7 12h-17.9c-.1-.3-.2-.5-.2-.9-2.1-10-4.2-20.1-6.3-30-.5-2.8-1.2-5.4-1.8-8.5-.2.6-.3.9-.3 1.3-1.8 8.1-3.6 16.2-5.3 24.2-1.1 4.7-2.1 9.2-3.2 13.9h-17.9c-.1-.4-.2-.8-.3-1.1-2.9-13.9-5.8-27.8-8.7-41.8-1.3-6.2-2.5-12.4-3.9-18.6-.1-.5 0-1.3-.8-1.3-2.2.2-4.5.3-6.8.3z"/></svg>